%TF.GenerationSoftware,KiCad,Pcbnew,9.0.2*%
%TF.CreationDate,2025-06-05T07:55:02-04:00*%
%TF.ProjectId,Encoder,456e636f-6465-4722-9e6b-696361645f70,rev?*%
%TF.SameCoordinates,Original*%
%TF.FileFunction,Legend,Top*%
%TF.FilePolarity,Positive*%
%FSLAX46Y46*%
G04 Gerber Fmt 4.6, Leading zero omitted, Abs format (unit mm)*
G04 Created by KiCad (PCBNEW 9.0.2) date 2025-06-05 07:55:02*
%MOMM*%
%LPD*%
G01*
G04 APERTURE LIST*
%ADD10C,0.200000*%
%ADD11C,0.150000*%
%ADD12C,0.120000*%
%ADD13C,0.127000*%
G04 APERTURE END LIST*
D10*
X116190475Y-73599712D02*
X116095237Y-73647331D01*
X116095237Y-73647331D02*
X115904761Y-73647331D01*
X115904761Y-73647331D02*
X115809523Y-73599712D01*
X115809523Y-73599712D02*
X115761904Y-73504473D01*
X115761904Y-73504473D02*
X115761904Y-73123521D01*
X115761904Y-73123521D02*
X115809523Y-73028283D01*
X115809523Y-73028283D02*
X115904761Y-72980664D01*
X115904761Y-72980664D02*
X116095237Y-72980664D01*
X116095237Y-72980664D02*
X116190475Y-73028283D01*
X116190475Y-73028283D02*
X116238094Y-73123521D01*
X116238094Y-73123521D02*
X116238094Y-73218759D01*
X116238094Y-73218759D02*
X115761904Y-73313997D01*
X117047618Y-73599712D02*
X116952380Y-73647331D01*
X116952380Y-73647331D02*
X116761904Y-73647331D01*
X116761904Y-73647331D02*
X116666666Y-73599712D01*
X116666666Y-73599712D02*
X116619047Y-73504473D01*
X116619047Y-73504473D02*
X116619047Y-73123521D01*
X116619047Y-73123521D02*
X116666666Y-73028283D01*
X116666666Y-73028283D02*
X116761904Y-72980664D01*
X116761904Y-72980664D02*
X116952380Y-72980664D01*
X116952380Y-72980664D02*
X117047618Y-73028283D01*
X117047618Y-73028283D02*
X117095237Y-73123521D01*
X117095237Y-73123521D02*
X117095237Y-73218759D01*
X117095237Y-73218759D02*
X116619047Y-73313997D01*
X117523809Y-72980664D02*
X117523809Y-73980664D01*
X117523809Y-73028283D02*
X117619047Y-72980664D01*
X117619047Y-72980664D02*
X117809523Y-72980664D01*
X117809523Y-72980664D02*
X117904761Y-73028283D01*
X117904761Y-73028283D02*
X117952380Y-73075902D01*
X117952380Y-73075902D02*
X117999999Y-73171140D01*
X117999999Y-73171140D02*
X117999999Y-73456854D01*
X117999999Y-73456854D02*
X117952380Y-73552092D01*
X117952380Y-73552092D02*
X117904761Y-73599712D01*
X117904761Y-73599712D02*
X117809523Y-73647331D01*
X117809523Y-73647331D02*
X117619047Y-73647331D01*
X117619047Y-73647331D02*
X117523809Y-73599712D01*
X118333333Y-72980664D02*
X118571428Y-73647331D01*
X118809523Y-72980664D02*
X118571428Y-73647331D01*
X118571428Y-73647331D02*
X118476190Y-73885426D01*
X118476190Y-73885426D02*
X118428571Y-73933045D01*
X118428571Y-73933045D02*
X118333333Y-73980664D01*
X119904762Y-73599712D02*
X120000000Y-73647331D01*
X120000000Y-73647331D02*
X120190476Y-73647331D01*
X120190476Y-73647331D02*
X120285714Y-73599712D01*
X120285714Y-73599712D02*
X120333333Y-73504473D01*
X120333333Y-73504473D02*
X120333333Y-73456854D01*
X120333333Y-73456854D02*
X120285714Y-73361616D01*
X120285714Y-73361616D02*
X120190476Y-73313997D01*
X120190476Y-73313997D02*
X120047619Y-73313997D01*
X120047619Y-73313997D02*
X119952381Y-73266378D01*
X119952381Y-73266378D02*
X119904762Y-73171140D01*
X119904762Y-73171140D02*
X119904762Y-73123521D01*
X119904762Y-73123521D02*
X119952381Y-73028283D01*
X119952381Y-73028283D02*
X120047619Y-72980664D01*
X120047619Y-72980664D02*
X120190476Y-72980664D01*
X120190476Y-72980664D02*
X120285714Y-73028283D01*
X120904762Y-73647331D02*
X120809524Y-73599712D01*
X120809524Y-73599712D02*
X120761905Y-73504473D01*
X120761905Y-73504473D02*
X120761905Y-72647331D01*
X121666667Y-73599712D02*
X121571429Y-73647331D01*
X121571429Y-73647331D02*
X121380953Y-73647331D01*
X121380953Y-73647331D02*
X121285715Y-73599712D01*
X121285715Y-73599712D02*
X121238096Y-73504473D01*
X121238096Y-73504473D02*
X121238096Y-73123521D01*
X121238096Y-73123521D02*
X121285715Y-73028283D01*
X121285715Y-73028283D02*
X121380953Y-72980664D01*
X121380953Y-72980664D02*
X121571429Y-72980664D01*
X121571429Y-72980664D02*
X121666667Y-73028283D01*
X121666667Y-73028283D02*
X121714286Y-73123521D01*
X121714286Y-73123521D02*
X121714286Y-73218759D01*
X121714286Y-73218759D02*
X121238096Y-73313997D01*
X122523810Y-73599712D02*
X122428572Y-73647331D01*
X122428572Y-73647331D02*
X122238096Y-73647331D01*
X122238096Y-73647331D02*
X122142858Y-73599712D01*
X122142858Y-73599712D02*
X122095239Y-73504473D01*
X122095239Y-73504473D02*
X122095239Y-73123521D01*
X122095239Y-73123521D02*
X122142858Y-73028283D01*
X122142858Y-73028283D02*
X122238096Y-72980664D01*
X122238096Y-72980664D02*
X122428572Y-72980664D01*
X122428572Y-72980664D02*
X122523810Y-73028283D01*
X122523810Y-73028283D02*
X122571429Y-73123521D01*
X122571429Y-73123521D02*
X122571429Y-73218759D01*
X122571429Y-73218759D02*
X122095239Y-73313997D01*
X123000001Y-72980664D02*
X123000001Y-73980664D01*
X123000001Y-73028283D02*
X123095239Y-72980664D01*
X123095239Y-72980664D02*
X123285715Y-72980664D01*
X123285715Y-72980664D02*
X123380953Y-73028283D01*
X123380953Y-73028283D02*
X123428572Y-73075902D01*
X123428572Y-73075902D02*
X123476191Y-73171140D01*
X123476191Y-73171140D02*
X123476191Y-73456854D01*
X123476191Y-73456854D02*
X123428572Y-73552092D01*
X123428572Y-73552092D02*
X123380953Y-73599712D01*
X123380953Y-73599712D02*
X123285715Y-73647331D01*
X123285715Y-73647331D02*
X123095239Y-73647331D01*
X123095239Y-73647331D02*
X123000001Y-73599712D01*
X123809525Y-72980664D02*
X124047620Y-73647331D01*
X124285715Y-72980664D02*
X124047620Y-73647331D01*
X124047620Y-73647331D02*
X123952382Y-73885426D01*
X123952382Y-73885426D02*
X123904763Y-73933045D01*
X123904763Y-73933045D02*
X123809525Y-73980664D01*
X114809522Y-75257275D02*
X114809522Y-74733465D01*
X114809522Y-74733465D02*
X114761903Y-74638227D01*
X114761903Y-74638227D02*
X114666665Y-74590608D01*
X114666665Y-74590608D02*
X114476189Y-74590608D01*
X114476189Y-74590608D02*
X114380951Y-74638227D01*
X114809522Y-75209656D02*
X114714284Y-75257275D01*
X114714284Y-75257275D02*
X114476189Y-75257275D01*
X114476189Y-75257275D02*
X114380951Y-75209656D01*
X114380951Y-75209656D02*
X114333332Y-75114417D01*
X114333332Y-75114417D02*
X114333332Y-75019179D01*
X114333332Y-75019179D02*
X114380951Y-74923941D01*
X114380951Y-74923941D02*
X114476189Y-74876322D01*
X114476189Y-74876322D02*
X114714284Y-74876322D01*
X114714284Y-74876322D02*
X114809522Y-74828703D01*
X115285713Y-74590608D02*
X115285713Y-75257275D01*
X115285713Y-74685846D02*
X115333332Y-74638227D01*
X115333332Y-74638227D02*
X115428570Y-74590608D01*
X115428570Y-74590608D02*
X115571427Y-74590608D01*
X115571427Y-74590608D02*
X115666665Y-74638227D01*
X115666665Y-74638227D02*
X115714284Y-74733465D01*
X115714284Y-74733465D02*
X115714284Y-75257275D01*
X116619046Y-75257275D02*
X116619046Y-74733465D01*
X116619046Y-74733465D02*
X116571427Y-74638227D01*
X116571427Y-74638227D02*
X116476189Y-74590608D01*
X116476189Y-74590608D02*
X116285713Y-74590608D01*
X116285713Y-74590608D02*
X116190475Y-74638227D01*
X116619046Y-75209656D02*
X116523808Y-75257275D01*
X116523808Y-75257275D02*
X116285713Y-75257275D01*
X116285713Y-75257275D02*
X116190475Y-75209656D01*
X116190475Y-75209656D02*
X116142856Y-75114417D01*
X116142856Y-75114417D02*
X116142856Y-75019179D01*
X116142856Y-75019179D02*
X116190475Y-74923941D01*
X116190475Y-74923941D02*
X116285713Y-74876322D01*
X116285713Y-74876322D02*
X116523808Y-74876322D01*
X116523808Y-74876322D02*
X116619046Y-74828703D01*
X117238094Y-75257275D02*
X117142856Y-75209656D01*
X117142856Y-75209656D02*
X117095237Y-75114417D01*
X117095237Y-75114417D02*
X117095237Y-74257275D01*
X117761904Y-75257275D02*
X117666666Y-75209656D01*
X117666666Y-75209656D02*
X117619047Y-75162036D01*
X117619047Y-75162036D02*
X117571428Y-75066798D01*
X117571428Y-75066798D02*
X117571428Y-74781084D01*
X117571428Y-74781084D02*
X117619047Y-74685846D01*
X117619047Y-74685846D02*
X117666666Y-74638227D01*
X117666666Y-74638227D02*
X117761904Y-74590608D01*
X117761904Y-74590608D02*
X117904761Y-74590608D01*
X117904761Y-74590608D02*
X117999999Y-74638227D01*
X117999999Y-74638227D02*
X118047618Y-74685846D01*
X118047618Y-74685846D02*
X118095237Y-74781084D01*
X118095237Y-74781084D02*
X118095237Y-75066798D01*
X118095237Y-75066798D02*
X118047618Y-75162036D01*
X118047618Y-75162036D02*
X117999999Y-75209656D01*
X117999999Y-75209656D02*
X117904761Y-75257275D01*
X117904761Y-75257275D02*
X117761904Y-75257275D01*
X118952380Y-74590608D02*
X118952380Y-75400132D01*
X118952380Y-75400132D02*
X118904761Y-75495370D01*
X118904761Y-75495370D02*
X118857142Y-75542989D01*
X118857142Y-75542989D02*
X118761904Y-75590608D01*
X118761904Y-75590608D02*
X118619047Y-75590608D01*
X118619047Y-75590608D02*
X118523809Y-75542989D01*
X118952380Y-75209656D02*
X118857142Y-75257275D01*
X118857142Y-75257275D02*
X118666666Y-75257275D01*
X118666666Y-75257275D02*
X118571428Y-75209656D01*
X118571428Y-75209656D02*
X118523809Y-75162036D01*
X118523809Y-75162036D02*
X118476190Y-75066798D01*
X118476190Y-75066798D02*
X118476190Y-74781084D01*
X118476190Y-74781084D02*
X118523809Y-74685846D01*
X118523809Y-74685846D02*
X118571428Y-74638227D01*
X118571428Y-74638227D02*
X118666666Y-74590608D01*
X118666666Y-74590608D02*
X118857142Y-74590608D01*
X118857142Y-74590608D02*
X118952380Y-74638227D01*
X120571428Y-75209656D02*
X120476190Y-75257275D01*
X120476190Y-75257275D02*
X120285714Y-75257275D01*
X120285714Y-75257275D02*
X120190476Y-75209656D01*
X120190476Y-75209656D02*
X120142857Y-75114417D01*
X120142857Y-75114417D02*
X120142857Y-74733465D01*
X120142857Y-74733465D02*
X120190476Y-74638227D01*
X120190476Y-74638227D02*
X120285714Y-74590608D01*
X120285714Y-74590608D02*
X120476190Y-74590608D01*
X120476190Y-74590608D02*
X120571428Y-74638227D01*
X120571428Y-74638227D02*
X120619047Y-74733465D01*
X120619047Y-74733465D02*
X120619047Y-74828703D01*
X120619047Y-74828703D02*
X120142857Y-74923941D01*
X121047619Y-74590608D02*
X121047619Y-75257275D01*
X121047619Y-74685846D02*
X121095238Y-74638227D01*
X121095238Y-74638227D02*
X121190476Y-74590608D01*
X121190476Y-74590608D02*
X121333333Y-74590608D01*
X121333333Y-74590608D02*
X121428571Y-74638227D01*
X121428571Y-74638227D02*
X121476190Y-74733465D01*
X121476190Y-74733465D02*
X121476190Y-75257275D01*
X122380952Y-75209656D02*
X122285714Y-75257275D01*
X122285714Y-75257275D02*
X122095238Y-75257275D01*
X122095238Y-75257275D02*
X122000000Y-75209656D01*
X122000000Y-75209656D02*
X121952381Y-75162036D01*
X121952381Y-75162036D02*
X121904762Y-75066798D01*
X121904762Y-75066798D02*
X121904762Y-74781084D01*
X121904762Y-74781084D02*
X121952381Y-74685846D01*
X121952381Y-74685846D02*
X122000000Y-74638227D01*
X122000000Y-74638227D02*
X122095238Y-74590608D01*
X122095238Y-74590608D02*
X122285714Y-74590608D01*
X122285714Y-74590608D02*
X122380952Y-74638227D01*
X122952381Y-75257275D02*
X122857143Y-75209656D01*
X122857143Y-75209656D02*
X122809524Y-75162036D01*
X122809524Y-75162036D02*
X122761905Y-75066798D01*
X122761905Y-75066798D02*
X122761905Y-74781084D01*
X122761905Y-74781084D02*
X122809524Y-74685846D01*
X122809524Y-74685846D02*
X122857143Y-74638227D01*
X122857143Y-74638227D02*
X122952381Y-74590608D01*
X122952381Y-74590608D02*
X123095238Y-74590608D01*
X123095238Y-74590608D02*
X123190476Y-74638227D01*
X123190476Y-74638227D02*
X123238095Y-74685846D01*
X123238095Y-74685846D02*
X123285714Y-74781084D01*
X123285714Y-74781084D02*
X123285714Y-75066798D01*
X123285714Y-75066798D02*
X123238095Y-75162036D01*
X123238095Y-75162036D02*
X123190476Y-75209656D01*
X123190476Y-75209656D02*
X123095238Y-75257275D01*
X123095238Y-75257275D02*
X122952381Y-75257275D01*
X124142857Y-75257275D02*
X124142857Y-74257275D01*
X124142857Y-75209656D02*
X124047619Y-75257275D01*
X124047619Y-75257275D02*
X123857143Y-75257275D01*
X123857143Y-75257275D02*
X123761905Y-75209656D01*
X123761905Y-75209656D02*
X123714286Y-75162036D01*
X123714286Y-75162036D02*
X123666667Y-75066798D01*
X123666667Y-75066798D02*
X123666667Y-74781084D01*
X123666667Y-74781084D02*
X123714286Y-74685846D01*
X123714286Y-74685846D02*
X123761905Y-74638227D01*
X123761905Y-74638227D02*
X123857143Y-74590608D01*
X123857143Y-74590608D02*
X124047619Y-74590608D01*
X124047619Y-74590608D02*
X124142857Y-74638227D01*
X125000000Y-75209656D02*
X124904762Y-75257275D01*
X124904762Y-75257275D02*
X124714286Y-75257275D01*
X124714286Y-75257275D02*
X124619048Y-75209656D01*
X124619048Y-75209656D02*
X124571429Y-75114417D01*
X124571429Y-75114417D02*
X124571429Y-74733465D01*
X124571429Y-74733465D02*
X124619048Y-74638227D01*
X124619048Y-74638227D02*
X124714286Y-74590608D01*
X124714286Y-74590608D02*
X124904762Y-74590608D01*
X124904762Y-74590608D02*
X125000000Y-74638227D01*
X125000000Y-74638227D02*
X125047619Y-74733465D01*
X125047619Y-74733465D02*
X125047619Y-74828703D01*
X125047619Y-74828703D02*
X124571429Y-74923941D01*
X125476191Y-75257275D02*
X125476191Y-74590608D01*
X125476191Y-74781084D02*
X125523810Y-74685846D01*
X125523810Y-74685846D02*
X125571429Y-74638227D01*
X125571429Y-74638227D02*
X125666667Y-74590608D01*
X125666667Y-74590608D02*
X125761905Y-74590608D01*
X119857142Y-75867219D02*
X119380952Y-75867219D01*
X119380952Y-75867219D02*
X119333333Y-76343409D01*
X119333333Y-76343409D02*
X119380952Y-76295790D01*
X119380952Y-76295790D02*
X119476190Y-76248171D01*
X119476190Y-76248171D02*
X119714285Y-76248171D01*
X119714285Y-76248171D02*
X119809523Y-76295790D01*
X119809523Y-76295790D02*
X119857142Y-76343409D01*
X119857142Y-76343409D02*
X119904761Y-76438647D01*
X119904761Y-76438647D02*
X119904761Y-76676742D01*
X119904761Y-76676742D02*
X119857142Y-76771980D01*
X119857142Y-76771980D02*
X119809523Y-76819600D01*
X119809523Y-76819600D02*
X119714285Y-76867219D01*
X119714285Y-76867219D02*
X119476190Y-76867219D01*
X119476190Y-76867219D02*
X119380952Y-76819600D01*
X119380952Y-76819600D02*
X119333333Y-76771980D01*
X120238095Y-76200552D02*
X120476190Y-76867219D01*
X120476190Y-76867219D02*
X120714285Y-76200552D01*
D11*
X107289160Y-87818104D02*
X107327255Y-87856200D01*
X107327255Y-87856200D02*
X107289160Y-87894295D01*
X107289160Y-87894295D02*
X107251064Y-87856200D01*
X107251064Y-87856200D02*
X107289160Y-87818104D01*
X107289160Y-87818104D02*
X107289160Y-87894295D01*
X116261904Y-92454819D02*
X116357142Y-92454819D01*
X116357142Y-92454819D02*
X116452380Y-92502438D01*
X116452380Y-92502438D02*
X116499999Y-92550057D01*
X116499999Y-92550057D02*
X116547618Y-92645295D01*
X116547618Y-92645295D02*
X116595237Y-92835771D01*
X116595237Y-92835771D02*
X116595237Y-93073866D01*
X116595237Y-93073866D02*
X116547618Y-93264342D01*
X116547618Y-93264342D02*
X116499999Y-93359580D01*
X116499999Y-93359580D02*
X116452380Y-93407200D01*
X116452380Y-93407200D02*
X116357142Y-93454819D01*
X116357142Y-93454819D02*
X116261904Y-93454819D01*
X116261904Y-93454819D02*
X116166666Y-93407200D01*
X116166666Y-93407200D02*
X116119047Y-93359580D01*
X116119047Y-93359580D02*
X116071428Y-93264342D01*
X116071428Y-93264342D02*
X116023809Y-93073866D01*
X116023809Y-93073866D02*
X116023809Y-92835771D01*
X116023809Y-92835771D02*
X116071428Y-92645295D01*
X116071428Y-92645295D02*
X116119047Y-92550057D01*
X116119047Y-92550057D02*
X116166666Y-92502438D01*
X116166666Y-92502438D02*
X116261904Y-92454819D01*
X117452380Y-92454819D02*
X117261904Y-92454819D01*
X117261904Y-92454819D02*
X117166666Y-92502438D01*
X117166666Y-92502438D02*
X117119047Y-92550057D01*
X117119047Y-92550057D02*
X117023809Y-92692914D01*
X117023809Y-92692914D02*
X116976190Y-92883390D01*
X116976190Y-92883390D02*
X116976190Y-93264342D01*
X116976190Y-93264342D02*
X117023809Y-93359580D01*
X117023809Y-93359580D02*
X117071428Y-93407200D01*
X117071428Y-93407200D02*
X117166666Y-93454819D01*
X117166666Y-93454819D02*
X117357142Y-93454819D01*
X117357142Y-93454819D02*
X117452380Y-93407200D01*
X117452380Y-93407200D02*
X117499999Y-93359580D01*
X117499999Y-93359580D02*
X117547618Y-93264342D01*
X117547618Y-93264342D02*
X117547618Y-93026247D01*
X117547618Y-93026247D02*
X117499999Y-92931009D01*
X117499999Y-92931009D02*
X117452380Y-92883390D01*
X117452380Y-92883390D02*
X117357142Y-92835771D01*
X117357142Y-92835771D02*
X117166666Y-92835771D01*
X117166666Y-92835771D02*
X117071428Y-92883390D01*
X117071428Y-92883390D02*
X117023809Y-92931009D01*
X117023809Y-92931009D02*
X116976190Y-93026247D01*
X118166666Y-92454819D02*
X118261904Y-92454819D01*
X118261904Y-92454819D02*
X118357142Y-92502438D01*
X118357142Y-92502438D02*
X118404761Y-92550057D01*
X118404761Y-92550057D02*
X118452380Y-92645295D01*
X118452380Y-92645295D02*
X118499999Y-92835771D01*
X118499999Y-92835771D02*
X118499999Y-93073866D01*
X118499999Y-93073866D02*
X118452380Y-93264342D01*
X118452380Y-93264342D02*
X118404761Y-93359580D01*
X118404761Y-93359580D02*
X118357142Y-93407200D01*
X118357142Y-93407200D02*
X118261904Y-93454819D01*
X118261904Y-93454819D02*
X118166666Y-93454819D01*
X118166666Y-93454819D02*
X118071428Y-93407200D01*
X118071428Y-93407200D02*
X118023809Y-93359580D01*
X118023809Y-93359580D02*
X117976190Y-93264342D01*
X117976190Y-93264342D02*
X117928571Y-93073866D01*
X117928571Y-93073866D02*
X117928571Y-92835771D01*
X117928571Y-92835771D02*
X117976190Y-92645295D01*
X117976190Y-92645295D02*
X118023809Y-92550057D01*
X118023809Y-92550057D02*
X118071428Y-92502438D01*
X118071428Y-92502438D02*
X118166666Y-92454819D01*
X118833333Y-92454819D02*
X119452380Y-92454819D01*
X119452380Y-92454819D02*
X119119047Y-92835771D01*
X119119047Y-92835771D02*
X119261904Y-92835771D01*
X119261904Y-92835771D02*
X119357142Y-92883390D01*
X119357142Y-92883390D02*
X119404761Y-92931009D01*
X119404761Y-92931009D02*
X119452380Y-93026247D01*
X119452380Y-93026247D02*
X119452380Y-93264342D01*
X119452380Y-93264342D02*
X119404761Y-93359580D01*
X119404761Y-93359580D02*
X119357142Y-93407200D01*
X119357142Y-93407200D02*
X119261904Y-93454819D01*
X119261904Y-93454819D02*
X118976190Y-93454819D01*
X118976190Y-93454819D02*
X118880952Y-93407200D01*
X118880952Y-93407200D02*
X118833333Y-93359580D01*
X121166666Y-93454819D02*
X120595238Y-93454819D01*
X120880952Y-93454819D02*
X120880952Y-92454819D01*
X120880952Y-92454819D02*
X120785714Y-92597676D01*
X120785714Y-92597676D02*
X120690476Y-92692914D01*
X120690476Y-92692914D02*
X120595238Y-92740533D01*
X121785714Y-92454819D02*
X121880952Y-92454819D01*
X121880952Y-92454819D02*
X121976190Y-92502438D01*
X121976190Y-92502438D02*
X122023809Y-92550057D01*
X122023809Y-92550057D02*
X122071428Y-92645295D01*
X122071428Y-92645295D02*
X122119047Y-92835771D01*
X122119047Y-92835771D02*
X122119047Y-93073866D01*
X122119047Y-93073866D02*
X122071428Y-93264342D01*
X122071428Y-93264342D02*
X122023809Y-93359580D01*
X122023809Y-93359580D02*
X121976190Y-93407200D01*
X121976190Y-93407200D02*
X121880952Y-93454819D01*
X121880952Y-93454819D02*
X121785714Y-93454819D01*
X121785714Y-93454819D02*
X121690476Y-93407200D01*
X121690476Y-93407200D02*
X121642857Y-93359580D01*
X121642857Y-93359580D02*
X121595238Y-93264342D01*
X121595238Y-93264342D02*
X121547619Y-93073866D01*
X121547619Y-93073866D02*
X121547619Y-92835771D01*
X121547619Y-92835771D02*
X121595238Y-92645295D01*
X121595238Y-92645295D02*
X121642857Y-92550057D01*
X121642857Y-92550057D02*
X121690476Y-92502438D01*
X121690476Y-92502438D02*
X121785714Y-92454819D01*
X122738095Y-92454819D02*
X122833333Y-92454819D01*
X122833333Y-92454819D02*
X122928571Y-92502438D01*
X122928571Y-92502438D02*
X122976190Y-92550057D01*
X122976190Y-92550057D02*
X123023809Y-92645295D01*
X123023809Y-92645295D02*
X123071428Y-92835771D01*
X123071428Y-92835771D02*
X123071428Y-93073866D01*
X123071428Y-93073866D02*
X123023809Y-93264342D01*
X123023809Y-93264342D02*
X122976190Y-93359580D01*
X122976190Y-93359580D02*
X122928571Y-93407200D01*
X122928571Y-93407200D02*
X122833333Y-93454819D01*
X122833333Y-93454819D02*
X122738095Y-93454819D01*
X122738095Y-93454819D02*
X122642857Y-93407200D01*
X122642857Y-93407200D02*
X122595238Y-93359580D01*
X122595238Y-93359580D02*
X122547619Y-93264342D01*
X122547619Y-93264342D02*
X122500000Y-93073866D01*
X122500000Y-93073866D02*
X122500000Y-92835771D01*
X122500000Y-92835771D02*
X122547619Y-92645295D01*
X122547619Y-92645295D02*
X122595238Y-92550057D01*
X122595238Y-92550057D02*
X122642857Y-92502438D01*
X122642857Y-92502438D02*
X122738095Y-92454819D01*
X123500000Y-92788152D02*
X123500000Y-93454819D01*
X123500000Y-92883390D02*
X123547619Y-92835771D01*
X123547619Y-92835771D02*
X123642857Y-92788152D01*
X123642857Y-92788152D02*
X123785714Y-92788152D01*
X123785714Y-92788152D02*
X123880952Y-92835771D01*
X123880952Y-92835771D02*
X123928571Y-92931009D01*
X123928571Y-92931009D02*
X123928571Y-93454819D01*
X116095237Y-96454819D02*
X116095237Y-97169104D01*
X116095237Y-97169104D02*
X116047618Y-97311961D01*
X116047618Y-97311961D02*
X115952380Y-97407200D01*
X115952380Y-97407200D02*
X115809523Y-97454819D01*
X115809523Y-97454819D02*
X115714285Y-97454819D01*
X116523809Y-97407200D02*
X116666666Y-97454819D01*
X116666666Y-97454819D02*
X116904761Y-97454819D01*
X116904761Y-97454819D02*
X116999999Y-97407200D01*
X116999999Y-97407200D02*
X117047618Y-97359580D01*
X117047618Y-97359580D02*
X117095237Y-97264342D01*
X117095237Y-97264342D02*
X117095237Y-97169104D01*
X117095237Y-97169104D02*
X117047618Y-97073866D01*
X117047618Y-97073866D02*
X116999999Y-97026247D01*
X116999999Y-97026247D02*
X116904761Y-96978628D01*
X116904761Y-96978628D02*
X116714285Y-96931009D01*
X116714285Y-96931009D02*
X116619047Y-96883390D01*
X116619047Y-96883390D02*
X116571428Y-96835771D01*
X116571428Y-96835771D02*
X116523809Y-96740533D01*
X116523809Y-96740533D02*
X116523809Y-96645295D01*
X116523809Y-96645295D02*
X116571428Y-96550057D01*
X116571428Y-96550057D02*
X116619047Y-96502438D01*
X116619047Y-96502438D02*
X116714285Y-96454819D01*
X116714285Y-96454819D02*
X116952380Y-96454819D01*
X116952380Y-96454819D02*
X117095237Y-96502438D01*
X117380952Y-96454819D02*
X117952380Y-96454819D01*
X117666666Y-97454819D02*
X117666666Y-96454819D01*
X118952381Y-96454819D02*
X119571428Y-96454819D01*
X119571428Y-96454819D02*
X119238095Y-96835771D01*
X119238095Y-96835771D02*
X119380952Y-96835771D01*
X119380952Y-96835771D02*
X119476190Y-96883390D01*
X119476190Y-96883390D02*
X119523809Y-96931009D01*
X119523809Y-96931009D02*
X119571428Y-97026247D01*
X119571428Y-97026247D02*
X119571428Y-97264342D01*
X119571428Y-97264342D02*
X119523809Y-97359580D01*
X119523809Y-97359580D02*
X119476190Y-97407200D01*
X119476190Y-97407200D02*
X119380952Y-97454819D01*
X119380952Y-97454819D02*
X119095238Y-97454819D01*
X119095238Y-97454819D02*
X119000000Y-97407200D01*
X119000000Y-97407200D02*
X118952381Y-97359580D01*
X120000000Y-97454819D02*
X120000000Y-96454819D01*
X120000000Y-96454819D02*
X120380952Y-96454819D01*
X120380952Y-96454819D02*
X120476190Y-96502438D01*
X120476190Y-96502438D02*
X120523809Y-96550057D01*
X120523809Y-96550057D02*
X120571428Y-96645295D01*
X120571428Y-96645295D02*
X120571428Y-96788152D01*
X120571428Y-96788152D02*
X120523809Y-96883390D01*
X120523809Y-96883390D02*
X120476190Y-96931009D01*
X120476190Y-96931009D02*
X120380952Y-96978628D01*
X120380952Y-96978628D02*
X120000000Y-96978628D01*
X121809524Y-97454819D02*
X122000000Y-97454819D01*
X122000000Y-97454819D02*
X122095238Y-97407200D01*
X122095238Y-97407200D02*
X122142857Y-97359580D01*
X122142857Y-97359580D02*
X122238095Y-97216723D01*
X122238095Y-97216723D02*
X122285714Y-97026247D01*
X122285714Y-97026247D02*
X122285714Y-96645295D01*
X122285714Y-96645295D02*
X122238095Y-96550057D01*
X122238095Y-96550057D02*
X122190476Y-96502438D01*
X122190476Y-96502438D02*
X122095238Y-96454819D01*
X122095238Y-96454819D02*
X121904762Y-96454819D01*
X121904762Y-96454819D02*
X121809524Y-96502438D01*
X121809524Y-96502438D02*
X121761905Y-96550057D01*
X121761905Y-96550057D02*
X121714286Y-96645295D01*
X121714286Y-96645295D02*
X121714286Y-96883390D01*
X121714286Y-96883390D02*
X121761905Y-96978628D01*
X121761905Y-96978628D02*
X121809524Y-97026247D01*
X121809524Y-97026247D02*
X121904762Y-97073866D01*
X121904762Y-97073866D02*
X122095238Y-97073866D01*
X122095238Y-97073866D02*
X122190476Y-97026247D01*
X122190476Y-97026247D02*
X122238095Y-96978628D01*
X122238095Y-96978628D02*
X122285714Y-96883390D01*
X122904762Y-96454819D02*
X123000000Y-96454819D01*
X123000000Y-96454819D02*
X123095238Y-96502438D01*
X123095238Y-96502438D02*
X123142857Y-96550057D01*
X123142857Y-96550057D02*
X123190476Y-96645295D01*
X123190476Y-96645295D02*
X123238095Y-96835771D01*
X123238095Y-96835771D02*
X123238095Y-97073866D01*
X123238095Y-97073866D02*
X123190476Y-97264342D01*
X123190476Y-97264342D02*
X123142857Y-97359580D01*
X123142857Y-97359580D02*
X123095238Y-97407200D01*
X123095238Y-97407200D02*
X123000000Y-97454819D01*
X123000000Y-97454819D02*
X122904762Y-97454819D01*
X122904762Y-97454819D02*
X122809524Y-97407200D01*
X122809524Y-97407200D02*
X122761905Y-97359580D01*
X122761905Y-97359580D02*
X122714286Y-97264342D01*
X122714286Y-97264342D02*
X122666667Y-97073866D01*
X122666667Y-97073866D02*
X122666667Y-96835771D01*
X122666667Y-96835771D02*
X122714286Y-96645295D01*
X122714286Y-96645295D02*
X122761905Y-96550057D01*
X122761905Y-96550057D02*
X122809524Y-96502438D01*
X122809524Y-96502438D02*
X122904762Y-96454819D01*
X123666667Y-97454819D02*
X123666667Y-96454819D01*
X123666667Y-96454819D02*
X123904762Y-96454819D01*
X123904762Y-96454819D02*
X124047619Y-96502438D01*
X124047619Y-96502438D02*
X124142857Y-96597676D01*
X124142857Y-96597676D02*
X124190476Y-96692914D01*
X124190476Y-96692914D02*
X124238095Y-96883390D01*
X124238095Y-96883390D02*
X124238095Y-97026247D01*
X124238095Y-97026247D02*
X124190476Y-97216723D01*
X124190476Y-97216723D02*
X124142857Y-97311961D01*
X124142857Y-97311961D02*
X124047619Y-97407200D01*
X124047619Y-97407200D02*
X123904762Y-97454819D01*
X123904762Y-97454819D02*
X123666667Y-97454819D01*
X114761905Y-95169104D02*
X115238095Y-95169104D01*
X114666667Y-95454819D02*
X115000000Y-94454819D01*
X115000000Y-94454819D02*
X115333333Y-95454819D01*
X115619048Y-95407200D02*
X115761905Y-95454819D01*
X115761905Y-95454819D02*
X116000000Y-95454819D01*
X116000000Y-95454819D02*
X116095238Y-95407200D01*
X116095238Y-95407200D02*
X116142857Y-95359580D01*
X116142857Y-95359580D02*
X116190476Y-95264342D01*
X116190476Y-95264342D02*
X116190476Y-95169104D01*
X116190476Y-95169104D02*
X116142857Y-95073866D01*
X116142857Y-95073866D02*
X116095238Y-95026247D01*
X116095238Y-95026247D02*
X116000000Y-94978628D01*
X116000000Y-94978628D02*
X115809524Y-94931009D01*
X115809524Y-94931009D02*
X115714286Y-94883390D01*
X115714286Y-94883390D02*
X115666667Y-94835771D01*
X115666667Y-94835771D02*
X115619048Y-94740533D01*
X115619048Y-94740533D02*
X115619048Y-94645295D01*
X115619048Y-94645295D02*
X115666667Y-94550057D01*
X115666667Y-94550057D02*
X115714286Y-94502438D01*
X115714286Y-94502438D02*
X115809524Y-94454819D01*
X115809524Y-94454819D02*
X116047619Y-94454819D01*
X116047619Y-94454819D02*
X116190476Y-94502438D01*
X117095238Y-94454819D02*
X116619048Y-94454819D01*
X116619048Y-94454819D02*
X116571429Y-94931009D01*
X116571429Y-94931009D02*
X116619048Y-94883390D01*
X116619048Y-94883390D02*
X116714286Y-94835771D01*
X116714286Y-94835771D02*
X116952381Y-94835771D01*
X116952381Y-94835771D02*
X117047619Y-94883390D01*
X117047619Y-94883390D02*
X117095238Y-94931009D01*
X117095238Y-94931009D02*
X117142857Y-95026247D01*
X117142857Y-95026247D02*
X117142857Y-95264342D01*
X117142857Y-95264342D02*
X117095238Y-95359580D01*
X117095238Y-95359580D02*
X117047619Y-95407200D01*
X117047619Y-95407200D02*
X116952381Y-95454819D01*
X116952381Y-95454819D02*
X116714286Y-95454819D01*
X116714286Y-95454819D02*
X116619048Y-95407200D01*
X116619048Y-95407200D02*
X116571429Y-95359580D01*
X118000000Y-94454819D02*
X117809524Y-94454819D01*
X117809524Y-94454819D02*
X117714286Y-94502438D01*
X117714286Y-94502438D02*
X117666667Y-94550057D01*
X117666667Y-94550057D02*
X117571429Y-94692914D01*
X117571429Y-94692914D02*
X117523810Y-94883390D01*
X117523810Y-94883390D02*
X117523810Y-95264342D01*
X117523810Y-95264342D02*
X117571429Y-95359580D01*
X117571429Y-95359580D02*
X117619048Y-95407200D01*
X117619048Y-95407200D02*
X117714286Y-95454819D01*
X117714286Y-95454819D02*
X117904762Y-95454819D01*
X117904762Y-95454819D02*
X118000000Y-95407200D01*
X118000000Y-95407200D02*
X118047619Y-95359580D01*
X118047619Y-95359580D02*
X118095238Y-95264342D01*
X118095238Y-95264342D02*
X118095238Y-95026247D01*
X118095238Y-95026247D02*
X118047619Y-94931009D01*
X118047619Y-94931009D02*
X118000000Y-94883390D01*
X118000000Y-94883390D02*
X117904762Y-94835771D01*
X117904762Y-94835771D02*
X117714286Y-94835771D01*
X117714286Y-94835771D02*
X117619048Y-94883390D01*
X117619048Y-94883390D02*
X117571429Y-94931009D01*
X117571429Y-94931009D02*
X117523810Y-95026247D01*
X118714286Y-94454819D02*
X118809524Y-94454819D01*
X118809524Y-94454819D02*
X118904762Y-94502438D01*
X118904762Y-94502438D02*
X118952381Y-94550057D01*
X118952381Y-94550057D02*
X119000000Y-94645295D01*
X119000000Y-94645295D02*
X119047619Y-94835771D01*
X119047619Y-94835771D02*
X119047619Y-95073866D01*
X119047619Y-95073866D02*
X119000000Y-95264342D01*
X119000000Y-95264342D02*
X118952381Y-95359580D01*
X118952381Y-95359580D02*
X118904762Y-95407200D01*
X118904762Y-95407200D02*
X118809524Y-95454819D01*
X118809524Y-95454819D02*
X118714286Y-95454819D01*
X118714286Y-95454819D02*
X118619048Y-95407200D01*
X118619048Y-95407200D02*
X118571429Y-95359580D01*
X118571429Y-95359580D02*
X118523810Y-95264342D01*
X118523810Y-95264342D02*
X118476191Y-95073866D01*
X118476191Y-95073866D02*
X118476191Y-94835771D01*
X118476191Y-94835771D02*
X118523810Y-94645295D01*
X118523810Y-94645295D02*
X118571429Y-94550057D01*
X118571429Y-94550057D02*
X118619048Y-94502438D01*
X118619048Y-94502438D02*
X118714286Y-94454819D01*
X119666667Y-94454819D02*
X119761905Y-94454819D01*
X119761905Y-94454819D02*
X119857143Y-94502438D01*
X119857143Y-94502438D02*
X119904762Y-94550057D01*
X119904762Y-94550057D02*
X119952381Y-94645295D01*
X119952381Y-94645295D02*
X120000000Y-94835771D01*
X120000000Y-94835771D02*
X120000000Y-95073866D01*
X120000000Y-95073866D02*
X119952381Y-95264342D01*
X119952381Y-95264342D02*
X119904762Y-95359580D01*
X119904762Y-95359580D02*
X119857143Y-95407200D01*
X119857143Y-95407200D02*
X119761905Y-95454819D01*
X119761905Y-95454819D02*
X119666667Y-95454819D01*
X119666667Y-95454819D02*
X119571429Y-95407200D01*
X119571429Y-95407200D02*
X119523810Y-95359580D01*
X119523810Y-95359580D02*
X119476191Y-95264342D01*
X119476191Y-95264342D02*
X119428572Y-95073866D01*
X119428572Y-95073866D02*
X119428572Y-94835771D01*
X119428572Y-94835771D02*
X119476191Y-94645295D01*
X119476191Y-94645295D02*
X119523810Y-94550057D01*
X119523810Y-94550057D02*
X119571429Y-94502438D01*
X119571429Y-94502438D02*
X119666667Y-94454819D01*
X120428572Y-95073866D02*
X121190477Y-95073866D01*
X121619048Y-95169104D02*
X122095238Y-95169104D01*
X121523810Y-95454819D02*
X121857143Y-94454819D01*
X121857143Y-94454819D02*
X122190476Y-95454819D01*
X122476191Y-95407200D02*
X122619048Y-95454819D01*
X122619048Y-95454819D02*
X122857143Y-95454819D01*
X122857143Y-95454819D02*
X122952381Y-95407200D01*
X122952381Y-95407200D02*
X123000000Y-95359580D01*
X123000000Y-95359580D02*
X123047619Y-95264342D01*
X123047619Y-95264342D02*
X123047619Y-95169104D01*
X123047619Y-95169104D02*
X123000000Y-95073866D01*
X123000000Y-95073866D02*
X122952381Y-95026247D01*
X122952381Y-95026247D02*
X122857143Y-94978628D01*
X122857143Y-94978628D02*
X122666667Y-94931009D01*
X122666667Y-94931009D02*
X122571429Y-94883390D01*
X122571429Y-94883390D02*
X122523810Y-94835771D01*
X122523810Y-94835771D02*
X122476191Y-94740533D01*
X122476191Y-94740533D02*
X122476191Y-94645295D01*
X122476191Y-94645295D02*
X122523810Y-94550057D01*
X122523810Y-94550057D02*
X122571429Y-94502438D01*
X122571429Y-94502438D02*
X122666667Y-94454819D01*
X122666667Y-94454819D02*
X122904762Y-94454819D01*
X122904762Y-94454819D02*
X123047619Y-94502438D01*
X123666667Y-94454819D02*
X123857143Y-94454819D01*
X123857143Y-94454819D02*
X123952381Y-94502438D01*
X123952381Y-94502438D02*
X124047619Y-94597676D01*
X124047619Y-94597676D02*
X124095238Y-94788152D01*
X124095238Y-94788152D02*
X124095238Y-95121485D01*
X124095238Y-95121485D02*
X124047619Y-95311961D01*
X124047619Y-95311961D02*
X123952381Y-95407200D01*
X123952381Y-95407200D02*
X123857143Y-95454819D01*
X123857143Y-95454819D02*
X123666667Y-95454819D01*
X123666667Y-95454819D02*
X123571429Y-95407200D01*
X123571429Y-95407200D02*
X123476191Y-95311961D01*
X123476191Y-95311961D02*
X123428572Y-95121485D01*
X123428572Y-95121485D02*
X123428572Y-94788152D01*
X123428572Y-94788152D02*
X123476191Y-94597676D01*
X123476191Y-94597676D02*
X123571429Y-94502438D01*
X123571429Y-94502438D02*
X123666667Y-94454819D01*
X124523810Y-95454819D02*
X124523810Y-94454819D01*
X124523810Y-94454819D02*
X124857143Y-95169104D01*
X124857143Y-95169104D02*
X125190476Y-94454819D01*
X125190476Y-94454819D02*
X125190476Y-95454819D01*
D12*
%TO.C,0603 100n*%
X121490000Y-85008767D02*
X121490000Y-84716233D01*
X122510000Y-85008767D02*
X122510000Y-84716233D01*
%TO.C,J1*%
X125540000Y-79790000D02*
X125540000Y-80810000D01*
X125540000Y-80810000D02*
X127140000Y-80810000D01*
X125540000Y-88890000D02*
X127140000Y-88890000D01*
X125540000Y-89910000D02*
X125540000Y-88890000D01*
X127140000Y-80810000D02*
X127140000Y-82090000D01*
X127140000Y-87610000D02*
X124250000Y-87610000D01*
X127140000Y-88890000D02*
X127140000Y-87610000D01*
X129790000Y-79790000D02*
X125540000Y-79790000D01*
X129790000Y-89910000D02*
X125540000Y-89910000D01*
X133360000Y-88190000D02*
X133360000Y-81510000D01*
D13*
%TO.C,AS5600-ASOM*%
X107500000Y-87000000D02*
X107500000Y-83000000D01*
X112500000Y-83000000D02*
X112500000Y-87000000D01*
%TD*%
M02*
