%TF.GenerationSoftware,KiCad,Pcbnew,9.0.2*%
%TF.CreationDate,2025-06-05T07:55:02-04:00*%
%TF.ProjectId,Encoder,456e636f-6465-4722-9e6b-696361645f70,rev?*%
%TF.SameCoordinates,Original*%
%TF.FileFunction,Copper,L1,Top*%
%TF.FilePolarity,Positive*%
%FSLAX46Y46*%
G04 Gerber Fmt 4.6, Leading zero omitted, Abs format (unit mm)*
G04 Created by KiCad (PCBNEW 9.0.2) date 2025-06-05 07:55:02*
%MOMM*%
%LPD*%
G01*
G04 APERTURE LIST*
G04 Aperture macros list*
%AMRoundRect*
0 Rectangle with rounded corners*
0 $1 Rounding radius*
0 $2 $3 $4 $5 $6 $7 $8 $9 X,Y pos of 4 corners*
0 Add a 4 corners polygon primitive as box body*
4,1,4,$2,$3,$4,$5,$6,$7,$8,$9,$2,$3,0*
0 Add four circle primitives for the rounded corners*
1,1,$1+$1,$2,$3*
1,1,$1+$1,$4,$5*
1,1,$1+$1,$6,$7*
1,1,$1+$1,$8,$9*
0 Add four rect primitives between the rounded corners*
20,1,$1+$1,$2,$3,$4,$5,0*
20,1,$1+$1,$4,$5,$6,$7,0*
20,1,$1+$1,$6,$7,$8,$9,0*
20,1,$1+$1,$8,$9,$2,$3,0*%
G04 Aperture macros list end*
%TA.AperFunction,SMDPad,CuDef*%
%ADD10RoundRect,0.237500X0.237500X-0.300000X0.237500X0.300000X-0.237500X0.300000X-0.237500X-0.300000X0*%
%TD*%
%TA.AperFunction,SMDPad,CuDef*%
%ADD11RoundRect,0.250000X1.500000X-0.250000X1.500000X0.250000X-1.500000X0.250000X-1.500000X-0.250000X0*%
%TD*%
%TA.AperFunction,SMDPad,CuDef*%
%ADD12RoundRect,0.250001X1.449999X-0.499999X1.449999X0.499999X-1.449999X0.499999X-1.449999X-0.499999X0*%
%TD*%
%TA.AperFunction,SMDPad,CuDef*%
%ADD13R,0.600000X1.400000*%
%TD*%
%TA.AperFunction,Conductor*%
%ADD14C,0.152400*%
%TD*%
G04 APERTURE END LIST*
D10*
%TO.P,0603 100n,1*%
%TO.N,+5V*%
X122000000Y-85725000D03*
%TO.P,0603 100n,2*%
%TO.N,GND*%
X122000000Y-84000000D03*
%TD*%
D11*
%TO.P,J1,1,Pin_1*%
%TO.N,GND*%
X126000000Y-86850000D03*
%TO.P,J1,2,Pin_2*%
%TO.N,+5V*%
X126000000Y-84850000D03*
%TO.P,J1,3,Pin_3*%
%TO.N,Net-(J1-Pin_3)*%
X126000000Y-82850000D03*
D12*
%TO.P,J1,MP*%
%TO.N,N/C*%
X131750000Y-89200000D03*
X131750000Y-80500000D03*
%TD*%
D13*
%TO.P,AS5600-ASOM,1,VDD5V*%
%TO.N,+5V*%
X108095000Y-87700000D03*
%TO.P,AS5600-ASOM,2,VDD3V3*%
%TO.N,unconnected-(U1-VDD3V3-Pad2)*%
X109365000Y-87700000D03*
%TO.P,AS5600-ASOM,3,OUT*%
%TO.N,Net-(J1-Pin_3)*%
X110635000Y-87700000D03*
%TO.P,AS5600-ASOM,4,GND*%
%TO.N,GND*%
X111905000Y-87700000D03*
%TO.P,AS5600-ASOM,5,PGO*%
%TO.N,unconnected-(U1-PGO-Pad5)*%
X111905000Y-82300000D03*
%TO.P,AS5600-ASOM,6,SDA*%
%TO.N,unconnected-(U1-SDA-Pad6)*%
X110635000Y-82300000D03*
%TO.P,AS5600-ASOM,7,SCL*%
%TO.N,unconnected-(U1-SCL-Pad7)*%
X109365000Y-82300000D03*
%TO.P,AS5600-ASOM,8,DIR*%
%TO.N,GND*%
X108095000Y-82300000D03*
%TD*%
D14*
%TO.N,+5V*%
X108200000Y-90000000D02*
X117725000Y-90000000D01*
X108095000Y-87700000D02*
X108095000Y-89895000D01*
X124475000Y-88200000D02*
X129000000Y-88200000D01*
X129000000Y-88200000D02*
X129000000Y-86100000D01*
X129000000Y-86100000D02*
X127750000Y-84850000D01*
X108095000Y-89895000D02*
X108200000Y-90000000D01*
X122000000Y-85725000D02*
X124475000Y-88200000D01*
X117725000Y-90000000D02*
X122000000Y-85725000D01*
X127750000Y-84850000D02*
X126000000Y-84850000D01*
%TO.N,GND*%
X108200000Y-80400000D02*
X118400000Y-80400000D01*
X118300000Y-87700000D02*
X122000000Y-84000000D01*
X108095000Y-80505000D02*
X108200000Y-80400000D01*
X122000000Y-84000000D02*
X124850000Y-86850000D01*
X111905000Y-87700000D02*
X118300000Y-87700000D01*
X118400000Y-80400000D02*
X122000000Y-84000000D01*
X108095000Y-82300000D02*
X108095000Y-80505000D01*
X124850000Y-86850000D02*
X126000000Y-86850000D01*
%TO.N,unconnected-(U1-VDD3V3-Pad2)*%
X109365000Y-87700000D02*
X109365000Y-88100000D01*
%TO.N,Net-(J1-Pin_3)*%
X106800000Y-79400000D02*
X122550000Y-79400000D01*
X122550000Y-79400000D02*
X126000000Y-82850000D01*
X107735000Y-84400000D02*
X106800000Y-84400000D01*
X110635000Y-87300000D02*
X107735000Y-84400000D01*
X110635000Y-87700000D02*
X110635000Y-87300000D01*
X106800000Y-84400000D02*
X106800000Y-79400000D01*
%TD*%
M02*
