%TF.GenerationSoftware,KiCad,Pcbnew,9.0.2*%
%TF.CreationDate,2025-06-01T02:56:29-04:00*%
%TF.ProjectId,merger,6d657267-6572-42e6-9b69-6361645f7063,rev?*%
%TF.SameCoordinates,Original*%
%TF.FileFunction,Copper,L1,Top*%
%TF.FilePolarity,Positive*%
%FSLAX46Y46*%
G04 Gerber Fmt 4.6, Leading zero omitted, Abs format (unit mm)*
G04 Created by KiCad (PCBNEW 9.0.2) date 2025-06-01 02:56:29*
%MOMM*%
%LPD*%
G01*
G04 APERTURE LIST*
G04 Aperture macros list*
%AMRoundRect*
0 Rectangle with rounded corners*
0 $1 Rounding radius*
0 $2 $3 $4 $5 $6 $7 $8 $9 X,Y pos of 4 corners*
0 Add a 4 corners polygon primitive as box body*
4,1,4,$2,$3,$4,$5,$6,$7,$8,$9,$2,$3,0*
0 Add four circle primitives for the rounded corners*
1,1,$1+$1,$2,$3*
1,1,$1+$1,$4,$5*
1,1,$1+$1,$6,$7*
1,1,$1+$1,$8,$9*
0 Add four rect primitives between the rounded corners*
20,1,$1+$1,$2,$3,$4,$5,0*
20,1,$1+$1,$4,$5,$6,$7,0*
20,1,$1+$1,$6,$7,$8,$9,0*
20,1,$1+$1,$8,$9,$2,$3,0*%
G04 Aperture macros list end*
%TA.AperFunction,SMDPad,CuDef*%
%ADD10RoundRect,0.250000X-1.500000X0.250000X-1.500000X-0.250000X1.500000X-0.250000X1.500000X0.250000X0*%
%TD*%
%TA.AperFunction,SMDPad,CuDef*%
%ADD11RoundRect,0.250001X-1.449999X0.499999X-1.449999X-0.499999X1.449999X-0.499999X1.449999X0.499999X0*%
%TD*%
%TA.AperFunction,SMDPad,CuDef*%
%ADD12RoundRect,0.250000X1.500000X-0.250000X1.500000X0.250000X-1.500000X0.250000X-1.500000X-0.250000X0*%
%TD*%
%TA.AperFunction,SMDPad,CuDef*%
%ADD13RoundRect,0.250001X1.449999X-0.499999X1.449999X0.499999X-1.449999X0.499999X-1.449999X-0.499999X0*%
%TD*%
%TA.AperFunction,Conductor*%
%ADD14C,0.200000*%
%TD*%
G04 APERTURE END LIST*
D10*
%TO.P,J2,1,Pin_1*%
%TO.N,GND*%
X120000000Y-75000000D03*
%TO.P,J2,2,Pin_2*%
%TO.N,+5V*%
X120000000Y-77000000D03*
%TO.P,J2,3,Pin_3*%
%TO.N,Net-(J2-Pin_3)*%
X120000000Y-79000000D03*
D11*
%TO.P,J2,MP*%
%TO.N,N/C*%
X114250000Y-72650000D03*
X114250000Y-81350000D03*
%TD*%
D10*
%TO.P,J1,1,Pin_1*%
%TO.N,GND*%
X120000000Y-63000000D03*
%TO.P,J1,2,Pin_2*%
%TO.N,+5V*%
X120000000Y-65000000D03*
%TO.P,J1,3,Pin_3*%
%TO.N,Net-(J1-Pin_3)*%
X120000000Y-67000000D03*
D11*
%TO.P,J1,MP*%
%TO.N,N/C*%
X114250000Y-60650000D03*
X114250000Y-69350000D03*
%TD*%
D12*
%TO.P,J3,1,Pin_1*%
%TO.N,GND*%
X125000000Y-74000000D03*
%TO.P,J3,2,Pin_2*%
%TO.N,+5V*%
X125000000Y-72000000D03*
%TO.P,J3,3,Pin_3*%
%TO.N,Net-(J1-Pin_3)*%
X125000000Y-70000000D03*
%TO.P,J3,4,Pin_4*%
%TO.N,Net-(J2-Pin_3)*%
X125000000Y-68000000D03*
D13*
%TO.P,J3,MP*%
%TO.N,N/C*%
X130750000Y-76350000D03*
X130750000Y-65650000D03*
%TD*%
D14*
%TO.N,Net-(J1-Pin_3)*%
X120000000Y-67000000D02*
X123000000Y-70000000D01*
X123000000Y-70000000D02*
X125000000Y-70000000D01*
%TO.N,GND*%
X126750000Y-74000000D02*
X125000000Y-74000000D01*
X120000000Y-63000000D02*
X122536160Y-63000000D01*
X127452000Y-67915840D02*
X127452000Y-73298000D01*
X118250000Y-75000000D02*
X117949000Y-75301000D01*
X117949000Y-79485160D02*
X118264840Y-79801000D01*
X122536160Y-63000000D02*
X127452000Y-67915840D01*
X118264840Y-79801000D02*
X121735160Y-79801000D01*
X127452000Y-73298000D02*
X126750000Y-74000000D01*
X117949000Y-75301000D02*
X117949000Y-79485160D01*
X120000000Y-75000000D02*
X118250000Y-75000000D01*
X125000000Y-76536160D02*
X125000000Y-74000000D01*
X121735160Y-79801000D02*
X125000000Y-76536160D01*
%TO.N,+5V*%
X121750000Y-77000000D02*
X122548000Y-76202000D01*
X117949000Y-67485160D02*
X122463840Y-72000000D01*
X119463840Y-65000000D02*
X117949000Y-66514840D01*
X117949000Y-66514840D02*
X117949000Y-67485160D01*
X122463840Y-72000000D02*
X125000000Y-72000000D01*
X123498740Y-72000000D02*
X125000000Y-72000000D01*
X122548000Y-76202000D02*
X122548000Y-72950740D01*
X120000000Y-65000000D02*
X119463840Y-65000000D01*
X122548000Y-72950740D02*
X123498740Y-72000000D01*
X120000000Y-77000000D02*
X121750000Y-77000000D01*
%TO.N,Net-(J2-Pin_3)*%
X127051000Y-72485160D02*
X127051000Y-69514840D01*
X126419320Y-73116840D02*
X127051000Y-72485160D01*
X120000000Y-79000000D02*
X121750000Y-79000000D01*
X121750000Y-79000000D02*
X122949000Y-77801000D01*
X125536160Y-68000000D02*
X125000000Y-68000000D01*
X127051000Y-69514840D02*
X125536160Y-68000000D01*
X122949000Y-73116840D02*
X126419320Y-73116840D01*
X122949000Y-77801000D02*
X122949000Y-73116840D01*
%TD*%
M02*
